<svg width="21" height="25" viewBox="0 0 21 25" fill="none" xmlns="http://www.w3.org/2000/svg">
<path d="M16.8259 11.1512C16.8259 10.119 17.6071 9.28254 18.5705 9.28254H18.6093C19.5712 9.28254 20.3517 10.1156 20.354 11.1461C20.3621 14.5172 20.3569 14.848 20.3522 19.8831C20.3495 22.7103 18.2092 25 15.5702 25H9.90408C8.17025 25 6.57173 23.9942 5.72692 22.372L0.675171 12.6663L1.2029 12.2286C2.29579 11.2241 3.93964 11.3477 4.89045 12.5051L6.30426 14.2263L6.31238 2.38555C6.31306 1.35378 7.09427 0.517761 8.05726 0.517761H8.05771C9.02138 0.517761 9.8026 1.35491 9.8026 2.38713V9.55317C9.8256 8.54282 10.5976 7.73274 11.5461 7.73274H11.5869C12.5506 7.73274 13.3318 8.56943 13.3318 9.60166V10.2034C13.3318 9.17091 14.1128 8.33444 15.0772 8.33444H15.0812C16.0447 8.33444 16.8259 9.17091 16.8259 10.2034V11.1512Z" fill="#F7CAA5"/>
</svg>
