<svg width="20" height="30" viewBox="0 0 20 30" fill="none" xmlns="http://www.w3.org/2000/svg">
<path d="M17.7561 16.5103V20.6897C17.7173 22.1279 17.3642 23.5403 16.7216 24.8276C14.4612 28.6759 14.6526 28.2517 14.6526 29.4828C14.6526 29.7684 14.421 30 14.1354 30H5.34228C5.05661 30 4.82503 29.7684 4.82503 29.4828C4.88341 28.9352 4.74397 28.3848 4.43193 27.931L1.84572 24.3621C0.811268 22.9385 0.453873 21.1327 0.868136 19.4224C1.38538 17.2965 3.22676 15.3931 4.96986 14.0897C5.50022 13.6825 6.14788 13.4576 6.81641 13.4483H11.0319C11.3176 13.4483 11.5492 13.6798 11.5492 13.9655V14.4828C11.5492 15.9111 10.3913 17.069 8.96297 17.069H7.41124C6.83991 17.069 6.37676 17.5321 6.37676 18.1034C6.37676 18.6748 6.83991 19.1379 7.41124 19.1379C8.09816 19.051 8.79553 19.166 9.41814 19.469C10.3466 19.9235 11.4685 19.5768 11.9785 18.6776L12.3974 18.0103C11.8543 18.8864 12.1118 20.0359 12.9768 20.5966C13.8845 21.1297 15.0523 20.832 15.594 19.9293L17.7561 16.5103Z" fill="#FDD7AD"/>
<path d="M1.08777 18.6672L1.04639 18.7706C1.05666 18.7349 1.07053 18.7002 1.08777 18.6672Z" fill="#FDD7AD"/>
<path d="M12.7413 2.06897C12.7413 2.35862 12.2241 5.20345 10.7034 13.4483H6.81889C6.14976 13.4479 5.49842 13.6638 4.962 14.0638C3.41027 15.2328 1.80165 16.8517 1.09303 18.6621C1.09303 18.6103 1.09303 18.6621 2.2051 15.8741C2.56949 14.9651 2.6664 13.9709 2.48441 13.0086L0.730965 3.5431C0.569772 2.80631 0.822285 2.04018 1.38998 1.54362C1.95768 1.04707 2.7506 0.898772 3.45938 1.1566C4.16817 1.41442 4.6805 2.03751 4.79648 2.78276L6.64303 11.1776C6.64303 11.3204 6.75882 11.4362 6.90165 11.4362C7.04448 11.4362 7.16027 11.3204 7.16027 11.1776L8.6551 1.66034C8.88589 0.641797 9.83959 -0.0450497 10.8788 0.0588689C11.918 0.162787 12.7168 1.02489 12.7413 2.06897Z" fill="#FDD7AD"/>
<path d="M11.5051 12.4138L10.9154 13.4483H6.56026C6.00122 13.4516 5.45774 13.6327 5.00854 13.9655C3.45681 15.1345 1.79647 16.8621 1.09302 18.6672C1.09302 18.6155 1.09302 18.6672 2.20509 15.8793C2.34589 15.528 2.44653 15.1619 2.50509 14.7879C3.09036 14.1895 3.7216 13.6378 4.39302 13.1379C5.01954 12.6712 5.77904 12.4175 6.56026 12.4138H11.5051Z" fill="#F9C795"/>
<path d="M9.42061 19.469C8.16889 18.7707 7.35165 19.469 6.6844 18.8328C6.39037 18.537 6.30271 18.0936 6.46208 17.7082C6.62144 17.3228 6.99666 17.0708 7.41371 17.069H9.64303C9.30165 18.0362 8.47406 18.9983 9.42061 19.469Z" fill="#F9C795"/>
<path d="M18.2758 15.119C18.2758 15.8328 18.2086 15.7604 15.5965 19.9448C15.2545 20.5358 14.6187 20.8945 13.936 20.8816C13.2533 20.8687 12.6315 20.4862 12.3121 19.8828C12.0587 20.1217 11.7666 20.3159 11.4483 20.4569C10.9291 19.525 10.9548 18.3851 11.5155 17.4776L13.9155 13.65C14.3136 13.0155 14.9298 12.5483 15.6483 12.3362C15.7867 12.664 15.8621 13.015 15.8707 13.3707C16.4303 13.1859 17.0447 13.2818 17.5214 13.6283C17.9981 13.9748 18.2789 14.5296 18.2758 15.119Z" fill="#FDD7AD"/>
<path d="M18.2757 15.119C18.2757 15.8328 18.2085 15.7603 15.5964 19.9448C15.2544 20.5358 14.6185 20.8945 13.9359 20.8816C13.2532 20.8687 12.6314 20.4862 12.3119 19.8828C12.0177 19.2849 12.0509 18.5779 12.3999 18.0103L14.4999 14.6586C14.8671 14.0741 15.1205 13.5879 15.8705 13.3552C16.4328 13.1694 17.0502 13.2671 17.5277 13.6173C18.0052 13.9674 18.2839 14.5269 18.2757 15.119Z" fill="#FDD7AD"/>
<path d="M15.6482 12.3362C15.2412 11.3737 14.3457 10.7064 13.307 10.5916C12.2684 10.4768 11.2487 10.9324 10.6413 11.7828L9.48272 13.2207L11.2982 13.4431C11.3862 13.5052 11.3603 13.6707 11.3603 14.2655C11.3603 15.781 10.2224 17.1672 8.97583 17.1672H8.55169L7.69824 18.0672C7.85341 19.1483 7.82755 19.6914 8.73272 20.2759C9.54765 20.7841 10.5625 20.8521 11.4379 20.4569C11.9555 21.3492 12.9058 21.9018 13.9373 21.9103C14.9688 21.9188 15.9281 21.3819 16.4603 20.4983L18.8448 16.7069C19.4998 15.6984 19.4635 14.39 18.7536 13.4194C18.0437 12.4487 16.8078 12.0176 15.6482 12.3362ZM17.9758 16.1638C17.6551 16.681 18.0224 16.0655 15.5965 19.9448C15.2545 20.5358 14.6186 20.8945 13.936 20.8816C13.2533 20.8687 12.6315 20.4862 12.312 19.8828C12.7103 19.5207 12.6172 19.6655 15.3793 15.2276C15.7381 14.6802 15.9188 14.0352 15.8965 13.381C16.6374 13.1736 17.4296 13.4432 17.8902 14.0596C18.3507 14.6759 18.3847 15.5121 17.9758 16.1638Z" fill="#F9C795"/>
<path d="M14.8411 13.5103C14.8327 13.9168 14.7147 14.3135 14.4997 14.6586L12.3997 18.0103C11.9704 18.6879 11.7532 19.1586 11.1118 19.469C10.5374 19.7695 9.84689 19.7439 9.29629 19.4017C8.84112 19.1121 8.87216 18.9414 8.77905 18.4138L8.98078 18.2017C10.7963 18.2017 12.3997 16.3862 12.3997 14.2655V13.5983C12.4245 13.0224 12.0203 12.5166 11.4532 12.4138C11.9141 11.7274 12.7741 11.4297 13.5607 11.6843C14.3473 11.9389 14.8698 12.6841 14.8411 13.5103Z" fill="#FDD7AD"/>
<path d="M8.57764 17.069C9.05216 17.0835 9.52538 17.0117 9.97419 16.8569C9.53785 17.0574 9.05383 17.1309 8.57764 17.069Z" fill="#FDD7AD"/>
<path d="M11.0344 13.4476H10.7913L10.7964 13.4431H11.324L11.0344 13.4476Z" fill="#FDD7AD"/>
<path d="M11.4533 12.4138C12.0246 12.5095 12.4363 13.0142 12.4153 13.5931V14.2603C12.4153 16.381 10.8946 18.3103 9.07912 18.3103L8.48429 18.1034C8.42686 17.7563 8.4589 17.4003 8.5774 17.069C9.05357 17.1292 9.53713 17.0558 9.97395 16.8569H10.0205C10.9562 16.4388 11.5567 15.5076 11.5515 14.4828V13.9655C11.5515 13.8828 11.5515 13.4483 10.7912 13.4483C10.8429 13.3914 11.2877 12.6155 11.4533 12.4138Z" fill="#F9C795"/>
</svg>
