<svg width="206" height="198" viewBox="0 0 206 198" fill="none" xmlns="http://www.w3.org/2000/svg">
<path d="M13.8499 130.724C17.1319 133.453 19.8298 136.878 19.567 139.208C19.4126 140.6 19.3273 142.015 19.3273 143.453C19.3273 164.632 36.0222 181.799 56.614 181.799C59.1574 181.799 61.639 181.536 64.0398 181.037C68.0829 180.199 72.857 181.822 75.7173 184.996C82.5166 192.533 92.2113 197.261 103 197.261C114.395 197.261 124.597 192 131.435 183.712C134.152 180.419 138.753 179.05 142.842 180.276C146.143 181.265 149.638 181.799 153.252 181.799C173.843 181.799 190.538 164.628 190.538 143.453C190.538 141.084 190.322 138.768 189.912 136.522C189.22 132.734 191.064 128.014 194.145 125.057C201.431 118.068 206 108.126 206 97.067C206 85.026 200.597 74.2992 192.15 67.2756C188.868 64.5466 186.17 61.1215 186.433 58.7907C186.588 57.3993 186.673 55.9845 186.673 54.5462C186.673 33.3671 169.977 16.2005 149.386 16.2005C146.843 16.2005 144.361 16.4632 141.961 16.962C137.917 17.8008 133.143 16.1774 130.283 13.0038C123.483 5.466 113.789 0.738464 103 0.738464C92.2118 0.738464 82.517 5.466 75.7173 13.0038C72.857 16.1734 68.0829 17.8008 64.0398 16.962C61.6394 16.4632 59.1574 16.2005 56.614 16.2005C36.0226 16.2005 19.3273 33.3712 19.3273 54.5462C19.3273 56.5872 19.4858 58.5894 19.791 60.5419C20.3011 63.8275 17.9933 67.8783 14.6382 70.5188C5.74782 77.5193 0 88.5243 0 100.933C0 112.974 5.40382 123.701 13.8499 130.724ZM53.1469 102.32C53.9739 100.855 56.0848 100.836 58.0175 102.514L77.4689 116.225C78.5239 116.867 79.5329 117.195 80.5031 117.195C82.5093 117.195 84.0979 115.75 85.6324 114.357L147.879 52.0493C151.771 47.8165 155.555 46.3245 158.026 47.9479C159.166 48.6978 159.904 49.8264 160.101 51.1292C160.337 52.6754 159.796 54.3413 158.578 55.818L83.7345 146.735C82.6484 148.052 81.2647 148.78 79.8422 148.78C78.1529 148.78 76.6224 147.763 75.6365 145.992L53.6687 106.39C52.7604 104.91 52.5591 103.372 53.1469 102.32Z" fill="#FCEA4A"/>
</svg>
