<svg width="17" height="26" viewBox="0 0 17 26" fill="none" xmlns="http://www.w3.org/2000/svg">
<path d="M14.4902 14.274C14.3862 14.274 14.2941 14.2859 14.1912 14.3097C13.7048 14.4441 13.5596 14.7799 13.4665 14.8882C13.5705 14.7019 11.9281 17.6367 11.8664 17.745C11.4417 18.5196 11.9585 19.5162 12.8674 19.5162C13.9215 19.5162 13.9583 18.4968 15.4804 16.0452C15.8021 15.4787 15.618 14.7582 15.0666 14.4278C14.8813 14.3217 14.6852 14.274 14.4902 14.274Z" fill="#FFCC80"/>
<path d="M5.92754 11.2515L4.52246 1.61744C4.44229 1.03894 3.96996 0.62619 3.40663 0.62619C3.07296 0.62619 2.76204 0.768107 2.54321 1.02811C2.33629 1.28811 2.23229 1.63044 2.28971 1.96086L3.62438 11.2526H5.92754V11.2515Z" fill="#FFCC80"/>
<path d="M9.43751 12.0781L10.7375 1.31086C10.7722 0.968525 10.6574 0.626191 10.4158 0.366192C10.1861 0.118108 9.85135 -0.0118918 9.50685 0.0119415C8.95435 0.0596082 8.50585 0.496192 8.44843 1.06277L7.25134 11.2515C7.66084 11.3176 8.84385 10.9623 9.43751 12.0781Z" fill="#FFCC80"/>
<path d="M16.2051 3.88483C16.2018 3.89458 16.1986 3.90108 16.1953 3.91082C16.1996 3.89783 16.204 3.88808 16.2051 3.88483Z" fill="#FFCC80"/>
<path d="M16.1954 3.91084C16.1922 3.91951 16.1889 3.92926 16.1846 3.94009C16.2008 3.89568 16.2062 3.87943 16.2052 3.88484C16.2507 3.75484 16.2745 3.63676 16.2745 3.50676C16.2745 3.03443 15.9636 2.59784 15.5032 2.42018C14.916 2.19593 14.2606 2.47976 14.0526 3.05826C10.7603 12.194 10.5458 12.9361 10.4386 13.0466C10.2652 13.4019 9.78099 13.4106 9.59791 13.2232C9.59791 13.2232 9.59791 13.2232 9.58599 13.2232C9.54699 13.3326 9.52424 13.6478 9.17216 13.9902C8.11374 15.0876 6.74332 15.7614 5.26999 15.9261C6.84624 17.2835 8.04332 19.0905 8.69982 21.0968C8.80382 21.4034 8.6424 21.7457 8.3434 21.853C8.03249 21.9472 7.71074 21.7826 7.60674 21.4749C6.90474 19.3147 5.50074 17.4254 3.65907 16.1622C3.52149 16.0301 2.8379 15.8112 3.00257 15.2176C3.0719 14.9695 3.30157 14.7929 3.55507 14.7929C4.01332 14.7225 6.34682 15.2111 8.36615 13.1636C8.61099 12.896 8.44957 12.4312 8.06715 12.4312H2.58982C2.03732 12.4312 1.55415 12.7974 1.38082 13.3282L0.23032 16.8577C-0.727346 19.8055 1.69932 21.4695 3.03832 23.8821C3.37199 24.3782 3.55615 24.9687 3.55615 25.5699V26.0065H12.4763C12.5002 25.8342 12.3236 24.7845 13.1437 23.7867C13.2682 23.5809 14.942 22.0339 14.9853 19.3007C14.8954 19.4101 14.5477 20.3092 13.4546 20.6115C11.5555 21.1846 9.81999 18.9984 10.8654 17.1524L12.3842 14.4842C14.9626 7.33092 15.8542 4.85767 16.1131 4.13834C16.1337 4.08092 16.1607 4.00726 16.1954 3.91084ZM9.80591 13.3358C9.79832 13.3337 9.7929 13.3315 9.7864 13.3293C9.7929 13.3326 9.79941 13.3337 9.80591 13.3358Z" fill="#FFCC80"/>
</svg>
